# xmcd
#
# Track frame offsets:
#	150
#	17262
#	36976
#	54026
#	71164
#	90064
#	108178
#	124468
#	142087
#	156333
#	172589
#
# Disc length: 2525 seconds
#
# Revision: 1
# Processed by: cddbd v1.5.2PL0 Copyright (c) Steve Scherf et al.
# Submitted via: audiograbber 1.83.01
#
DISCID=8209db0b
DTITLE=Holy Moses - 30th Anniversary - In the power of now
DYEAR=2012
DGENRE=Thrash Metal
TTITLE0=reborn dogs
TTITLE1=def con II
TTITLE2=i feel sick
TTITLE3=nothing for my mum
TTITLE4=disorder of the order
TTITLE5=corroded dreams
TTITLE6=entering the now
TTITLE7=creation of violation
TTITLE8=panik
TTITLE9=decapitaded minds
TTITLE10=master of disaster
EXTD=
EXTT0=
EXTT1=
EXTT2=
EXTT3=
EXTT4=
EXTT5=
EXTT6=
EXTT7=
EXTT8=
EXTT9=
EXTT10=
PLAYORDER=
